<svg id="Capa_1" data-name="Capa 1" xmlns="http://www.w3.org/2000/svg" width="3607.3" height="3398.98" viewBox="0 0 3607.3 3398.98"><circle cx="655.06" cy="1153.03" r="50.5" style="fill:#ff9470"/><path d="M855,1264a50,50,0,1,1-50,50,50.06,50.06,0,0,1,50-50m0-1a51,51,0,1,0,51,51,51,51,0,0,0-51-51Z" transform="translate(-199.94 -160.97)" style="fill:#fff"/><circle cx="454.79" cy="2257.17" r="138.04" transform="translate(-1662.79 821.73) rotate(-45)" style="fill:#ff9470"/><path d="M454.79,2119.63a137.52,137.52,0,1,1-97.26,40.28,136.63,136.63,0,0,1,97.26-40.28m0-1a138.54,138.54,0,1,0,138.54,138.54,138.53,138.53,0,0,0-138.54-138.54Z" transform="translate(-199.94 -160.97)" style="fill:#fff"/><path d="M2267.72,3559.44a187.06,187.06,0,0,1-86-20.8c-92.83-47.49-129.71-161.66-82.21-254.48a189.11,189.11,0,1,1,168.19,275.28Z" transform="translate(-199.94 -160.97)" style="fill:#ff9470"/><path d="M2268,3181.64A188.66,188.66,0,0,1,2365,3532a189.27,189.27,0,0,1-97.23,26.91,188.65,188.65,0,0,1-96.91-350.38,189.32,189.32,0,0,1,97.23-26.92h0m0-1a189.63,189.63,0,0,0-169,103.29c-47.7,93.22-10.79,207.46,82.43,255.16a189.51,189.51,0,0,0,255.17-82.43c47.69-93.23,10.79-207.47-82.44-255.16a188.75,188.75,0,0,0-86.21-20.86Z" transform="translate(-199.94 -160.97)" style="fill:#fff"/><path d="M1450.48,432.51a55,55,0,1,1,25.09-103.92,55,55,0,0,1-25.09,103.92Z" transform="translate(-199.94 -160.97)" style="fill:#ff9470"/><path d="M1450.57,322v1h0A54.48,54.48,0,1,1,1402,352.71,53.95,53.95,0,0,1,1450.57,323v-1m0,0a55.49,55.49,0,1,0,25.22,6.1,55.46,55.46,0,0,0-25.22-6.1Z" transform="translate(-199.94 -160.97)" style="fill:#fff"/><path d="M3565,3397.55a110.5,110.5,0,1,1,50.41-208.85A110.49,110.49,0,0,1,3565,3397.55Z" transform="translate(-199.94 -160.97)" style="fill:#ff9470"/><path d="M3565.14,3177.05a110,110,0,0,1,56.51,204.31,110.34,110.34,0,0,1-56.69,15.69,110,110,0,0,1-56.52-204.31,110.45,110.45,0,0,1,56.7-15.69h0m0-1a111,111,0,1,0,50.46,12.2,111,111,0,0,0-50.46-12.2Z" transform="translate(-199.94 -160.97)" style="fill:#fff"/><path d="M3541.83,483.73a161.13,161.13,0,0,1,.26-322.26,159.44,159.44,0,0,1,73.25,17.71c79.08,40.46,110.5,137.72,70,216.8A160.55,160.55,0,0,1,3541.83,483.73Z" transform="translate(-199.94 -160.97)" style="fill:#ff9470"/><path d="M3542.1,162a160.64,160.64,0,0,1,82.52,298.35,161.19,161.19,0,0,1-82.79,22.91,160.64,160.64,0,0,1-82.53-298.35A161.2,161.2,0,0,1,3542.1,162h0m0-1a161.65,161.65,0,1,0,73.48,17.77A161.59,161.59,0,0,0,3542.09,161Z" transform="translate(-199.94 -160.97)" style="fill:#fff"/><path d="M3593.12,1084.54a109.2,109.2,0,0,1-50.23-12.15,110.49,110.49,0,0,1,50.41-208.85,110.5,110.5,0,0,1-.18,221Z" transform="translate(-199.94 -160.97)" style="fill:#ff9470"/><path d="M3593.31,864a110,110,0,0,1,56.5,204.31,110.31,110.31,0,0,1-56.69,15.69,110,110,0,0,1-56.51-204.31,110.42,110.42,0,0,1,56.7-15.69h0m0-1a111,111,0,1,0,50.46,12.2A111,111,0,0,0,3593.3,863Z" transform="translate(-199.94 -160.97)" style="fill:#fff"/><path d="M1335.79,1074.48a21.23,21.23,0,1,1,21.23-21.23A21.26,21.26,0,0,1,1335.79,1074.48Z" transform="translate(-199.94 -160.97)" style="fill:#ff9470"/><path d="M1335.79,1032.52a20.73,20.73,0,1,1-20.74,20.73,20.75,20.75,0,0,1,20.74-20.73m0-1a21.73,21.73,0,1,0,21.73,21.73,21.73,21.73,0,0,0-21.73-21.73Z" transform="translate(-199.94 -160.97)" style="fill:#fff"/><circle cx="1615.79" cy="913.44" r="39.94" transform="translate(155.61 2115.18) rotate(-76.72)" style="fill:#ff9470"/><path d="M1615.79,874a39.45,39.45,0,1,1-39.45,39.45A39.48,39.48,0,0,1,1615.79,874m0-1a40.45,40.45,0,1,0,40.44,40.45A40.45,40.45,0,0,0,1615.79,873Z" transform="translate(-199.94 -160.97)" style="fill:#fff"/><path d="M367.07,3468.85a50.51,50.51,0,1,1,45-27.51A49.9,49.9,0,0,1,367.07,3468.85Z" transform="translate(-199.94 -160.97)" style="fill:#ff9470"/><path d="M367.15,3367.33v1h0a49.52,49.52,0,0,1,22.73,5.49,50,50,0,0,1-22.81,94.53,49.44,49.44,0,0,1-22.73-5.5,50,50,0,0,1,22.81-94.52v-1m0,0a51,51,0,1,0,23.19,5.6,51,51,0,0,0-23.19-5.6Z" transform="translate(-199.94 -160.97)" style="fill:#fff"/><circle cx="819.45" cy="497.23" r="26.63" style="fill:#ff9470"/><path d="M1019.39,632.07a26.13,26.13,0,1,1-26.13,26.13,26.16,26.16,0,0,1,26.13-26.13m0-1a27.13,27.13,0,1,0,27.13,27.13,27.13,27.13,0,0,0-27.13-27.13Z" transform="translate(-199.94 -160.97)" style="fill:#fff"/><path d="M663.43,554.09a47.8,47.8,0,1,1,42.58-26A47.21,47.21,0,0,1,663.43,554.09Z" transform="translate(-199.94 -160.97)" style="fill:#ff9470"/><path d="M663.51,458v1h0a46.74,46.74,0,0,1,21.49,5.2,47.3,47.3,0,0,1-21.57,89.4,46.82,46.82,0,0,1-21.51-5.2A47.3,47.3,0,0,1,663.5,459v-1m0,0a48.31,48.31,0,1,0,22,5.31,48.27,48.27,0,0,0-22-5.31Z" transform="translate(-199.94 -160.97)" style="fill:#fff"/><circle cx="1938.84" cy="2044.88" r="50.5" style="fill:#ff9470"/><path d="M2138.78,2155.84a50,50,0,1,1-50,50,50.06,50.06,0,0,1,50-50m0-1a51,51,0,1,0,51,51,51,51,0,0,0-51-51Z" transform="translate(-199.94 -160.97)" style="fill:#fff"/><path d="M3042.22,1553.7a138.07,138.07,0,1,1,63-261c67.76,34.67,94.68,118,60,185.77A137.57,137.57,0,0,1,3042.22,1553.7Z" transform="translate(-199.94 -160.97)" style="fill:#ff9470"/><path d="M3042.45,1278.06a137.58,137.58,0,0,1,70.67,255.52,138,138,0,0,1-70.9,19.62,137.58,137.58,0,0,1-70.68-255.51,138.16,138.16,0,0,1,70.91-19.63h0m0-1a138.6,138.6,0,1,0,63,15.24,138.56,138.56,0,0,0-63-15.24Z" transform="translate(-199.94 -160.97)" style="fill:#fff"/><path d="M273.69,935.91a73.24,73.24,0,1,1,28.17-5.67A73,73,0,0,1,273.69,935.91Z" transform="translate(-199.94 -160.97)" style="fill:#ff9470"/><path d="M273.63,789v1a72.74,72.74,0,1,1-28,5.63,72.56,72.56,0,0,1,28-5.63v-1m0,0a73.71,73.71,0,1,0,68,45.32,73.46,73.46,0,0,0-68-45.32Z" transform="translate(-199.94 -160.97)" style="fill:#fff"/><path d="M1291.11,3405.86a57.7,57.7,0,0,1-52.93-35.39c-12.72-29.8.66-64.61,29.83-77.6a56.31,56.31,0,0,1,23-4.93,57.68,57.68,0,0,1,52.92,35.4c12.73,29.79-.66,64.61-29.83,77.6A56.25,56.25,0,0,1,1291.11,3405.86Z" transform="translate(-199.94 -160.97)" style="fill:#ff9470"/><path d="M1291.05,3287.44v1a57.2,57.2,0,0,1,52.46,35.09c12.62,29.55-.65,64.07-29.57,76.95a55.81,55.81,0,0,1-22.83,4.88,57.2,57.2,0,0,1-52.47-35.09c-12.62-29.55.65-64.07,29.58-76.95a55.77,55.77,0,0,1,22.83-4.88v-1m0,0a57.06,57.06,0,0,0-23.24,5c-29.47,13.12-42.94,48.16-30.09,78.25a58.19,58.19,0,0,0,53.39,35.7,56.85,56.85,0,0,0,23.23-5c29.47-13.12,42.94-48.15,30.09-78.25a58.17,58.17,0,0,0-53.38-35.7Z" transform="translate(-199.94 -160.97)" style="fill:#fff"/><path d="M3407.2,2690.79a26.63,26.63,0,1,1,26.63-26.63A26.65,26.65,0,0,1,3407.2,2690.79Z" transform="translate(-199.94 -160.97)" style="fill:#ff9470"/><path d="M3407.2,2638a26.13,26.13,0,1,1-26.13,26.13A26.16,26.16,0,0,1,3407.2,2638m0-1a27.13,27.13,0,1,0,27.13,27.13A27.13,27.13,0,0,0,3407.2,2637Z" transform="translate(-199.94 -160.97)" style="fill:#fff"/><circle cx="3556.81" cy="2328.67" r="49.99" style="fill:#ff9470"/><path d="M3756.75,2440.14a49.49,49.49,0,1,1-49.49,49.49,49.54,49.54,0,0,1,49.49-49.49m0-1a50.49,50.49,0,1,0,50.49,50.49,50.49,50.49,0,0,0-50.49-50.49Z" transform="translate(-199.94 -160.97)" style="fill:#fff"/></svg>